<?xml version="1.0" encoding="utf-8"?>
<!-- Generator: Adobe Illustrator 16.0.0, SVG Export Plug-In . SVG Version: 6.00 Build 0)  -->
<!DOCTYPE svg PUBLIC "-//W3C//DTD SVG 1.1//EN" "http://www.w3.org/Graphics/SVG/1.1/DTD/svg11.dtd" [
	<!ENTITY ns_extend "http://ns.adobe.com/Extensibility/1.0/">
	<!ENTITY ns_ai "http://ns.adobe.com/AdobeIllustrator/10.0/">
	<!ENTITY ns_graphs "http://ns.adobe.com/Graphs/1.0/">
	<!ENTITY ns_vars "http://ns.adobe.com/Variables/1.0/">
	<!ENTITY ns_imrep "http://ns.adobe.com/ImageReplacement/1.0/">
	<!ENTITY ns_sfw "http://ns.adobe.com/SaveForWeb/1.0/">
	<!ENTITY ns_custom "http://ns.adobe.com/GenericCustomNamespace/1.0/">
	<!ENTITY ns_adobe_xpath "http://ns.adobe.com/XPath/1.0/">
]>
<svg version="1.1" id="Layer_1" xmlns:x="&ns_extend;" xmlns:i="&ns_ai;" xmlns:graph="&ns_graphs;"
	 xmlns="http://www.w3.org/2000/svg" xmlns:xlink="http://www.w3.org/1999/xlink" x="0px" y="0px" width="50px" height="44px"
	 viewBox="0 0 50 44" enable-background="new 0 0 50 44" xml:space="preserve">
<metadata>
	<sfw  xmlns="&ns_sfw;">
		<slices></slices>
		<sliceSourceBounds  height="43.871" y="-43.936" x="6.744" width="36.512" bottomLeftOrigin="true"></sliceSourceBounds>
	</sfw>
</metadata>
<g>
	<path fill="#3E43E9" d="M18.466,43.922c-2.633-1.142-5.089-4.021-5.089-6.978c0-3.217,2.033-5.952,4.577-7.749
		c-0.307,1.154-0.468,2.209,0.278,3.246c0.702,0.966,1.931,1.434,3.101,1.17c2.72-0.599,2.836-3.583,1.227-5.322
		c-1.593-1.742-3.129-3.687-2.515-6.187c0.308-1.257,1.068-2.428,2.048-3.261c-0.746,1.975,1.375,3.904,2.778,4.885
		c2.428,1.681,5.104,2.938,7.34,4.914c2.355,2.063,4.096,4.87,3.744,8.102c-0.379,3.51-3.172,5.951-6.303,7.194
		c6.625-1.463,13.453-6.597,13.602-13.937c0.115-6.039-4.021-10.69-9.154-13.352l-0.266-0.146c0.148,0.337,0.191,0.629,0.178,0.892
		c0.043-0.19,0.072-0.395,0.088-0.6c0,0.249-0.029,0.497-0.088,0.717l0.014-0.118c-0.072,0.322-0.205,0.629-0.379,0.907l0.072-0.087
		c-1.023,1.696-3.803,2.062-5.162,0.307c-2.209-2.822,0.043-5.878,0.365-8.876c0.395-3.758-1.959-7.399-4.885-9.579
		c1.609,2.603-0.512,6.04-2.208,7.97c-1.638,1.872-3.642,3.422-5.455,5.118c-1.944,1.813-3.816,3.729-5.425,5.864
		c-3.202,4.27-5.162,9.654-3.729,14.975C8.639,39.328,13.26,42.723,18.466,43.922L18.466,43.922z"/>
</g>
</svg>
