<?xml version="1.0" encoding="utf-8"?>
<!-- Generator: Adobe Illustrator 16.0.0, SVG Export Plug-In . SVG Version: 6.00 Build 0)  -->
<!DOCTYPE svg PUBLIC "-//W3C//DTD SVG 1.1//EN" "http://www.w3.org/Graphics/SVG/1.1/DTD/svg11.dtd" [
	<!ENTITY ns_extend "http://ns.adobe.com/Extensibility/1.0/">
	<!ENTITY ns_ai "http://ns.adobe.com/AdobeIllustrator/10.0/">
	<!ENTITY ns_graphs "http://ns.adobe.com/Graphs/1.0/">
	<!ENTITY ns_vars "http://ns.adobe.com/Variables/1.0/">
	<!ENTITY ns_imrep "http://ns.adobe.com/ImageReplacement/1.0/">
	<!ENTITY ns_sfw "http://ns.adobe.com/SaveForWeb/1.0/">
	<!ENTITY ns_custom "http://ns.adobe.com/GenericCustomNamespace/1.0/">
	<!ENTITY ns_adobe_xpath "http://ns.adobe.com/XPath/1.0/">
]>
<svg version="1.1" id="Layer_1" xmlns:x="&ns_extend;" xmlns:i="&ns_ai;" xmlns:graph="&ns_graphs;"
	 xmlns="http://www.w3.org/2000/svg" xmlns:xlink="http://www.w3.org/1999/xlink" x="0px" y="0px" width="50px" height="44px"
	 viewBox="0 0 50 44" enable-background="new 0 0 50 44" xml:space="preserve">
<metadata>
	<sfw  xmlns="&ns_sfw;">
		<slices></slices>
		<sliceSourceBounds  height="43.877" y="-43.938" x="3.062" width="43.875" bottomLeftOrigin="true"></sliceSourceBounds>
	</sfw>
</metadata>
<g>
	<path fill="#E6F0FF" d="M25,0.062C12.89,0.062,3.062,9.89,3.062,22c0,12.11,9.828,21.938,21.938,21.938
		c12.111,0,21.938-9.828,21.938-21.938C46.938,9.89,37.111,0.062,25,0.062z"/>
	<g>
		<path fill="#3E43E9" d="M35.268,14.716c0.264-0.351,0.438-0.833,0.438-1.316c0-1.141-0.922-2.106-2.105-2.106
			c-0.482,0-0.965,0.176-1.316,0.439C30.221,10.285,27.721,9.408,25,9.408c-6.933,0-12.592,5.616-12.592,12.592
			c0,6.977,5.66,12.593,12.592,12.593c6.932,0,12.592-5.616,12.592-12.593C37.592,19.28,36.717,16.778,35.268,14.716z M25,32.706
			c-5.879,0-10.706-4.782-10.706-10.706c0-5.879,4.783-10.706,10.706-10.706c2.457,0,4.695,0.834,6.494,2.194
			c0.043,1.053,0.922,1.931,1.975,1.975c1.404,1.799,2.236,4.081,2.236,6.494C35.705,27.879,30.879,32.706,25,32.706z"/>
		<circle fill="#3E43E9" cx="25" cy="22" r="5.792"/>
	</g>
</g>
</svg>
