<?xml version="1.0" encoding="utf-8"?>
<!-- Generator: Adobe Illustrator 16.0.0, SVG Export Plug-In . SVG Version: 6.00 Build 0)  -->
<!DOCTYPE svg PUBLIC "-//W3C//DTD SVG 1.1//EN" "http://www.w3.org/Graphics/SVG/1.1/DTD/svg11.dtd" [
	<!ENTITY ns_extend "http://ns.adobe.com/Extensibility/1.0/">
	<!ENTITY ns_ai "http://ns.adobe.com/AdobeIllustrator/10.0/">
	<!ENTITY ns_graphs "http://ns.adobe.com/Graphs/1.0/">
	<!ENTITY ns_vars "http://ns.adobe.com/Variables/1.0/">
	<!ENTITY ns_imrep "http://ns.adobe.com/ImageReplacement/1.0/">
	<!ENTITY ns_sfw "http://ns.adobe.com/SaveForWeb/1.0/">
	<!ENTITY ns_custom "http://ns.adobe.com/GenericCustomNamespace/1.0/">
	<!ENTITY ns_adobe_xpath "http://ns.adobe.com/XPath/1.0/">
]>
<svg version="1.1" id="Layer_1" xmlns:x="&ns_extend;" xmlns:i="&ns_ai;" xmlns:graph="&ns_graphs;"
	 xmlns="http://www.w3.org/2000/svg" xmlns:xlink="http://www.w3.org/1999/xlink" x="0px" y="0px" width="50px" height="44px"
	 viewBox="0 0 50 44" enable-background="new 0 0 50 44" xml:space="preserve">
<metadata>
	<sfw  xmlns="&ns_sfw;">
		<slices></slices>
		<sliceSourceBounds  height="44" y="-44" x="3" width="44" bottomLeftOrigin="true"></sliceSourceBounds>
	</sfw>
</metadata>
<g>
	<path fill="#3E43E9" d="M30.576,35.75c0.344,0.497,0.553,0.459,0.821,0.344c0.266-0.113,14.016-4.754,14.438-4.907
		c0.419-0.152,0.285-0.287,0.152-0.496c-0.134-0.212-4.718-6.438-4.946-6.8s-0.344-0.285-0.706-0.172l-14.576,3.794
		C25.759,27.513,30.232,35.253,30.576,35.75L30.576,35.75z"/>
	<path fill="#3E43E9" d="M47,29.411v-7.288c-1.642,0.438-3.714,0.99-4.533,1.208C43.701,24.982,45.634,27.569,47,29.411L47,29.411z"
		/>
	<path fill="#3E43E9" d="M42.451,14.356c-0.224,0.05-5.197,0.949-5.504,0.99c-0.306,0.041-0.205,0.214-0.082,0.388l4.377,6.006
		c0,0,5.354-1.328,5.681-1.4c0.024-0.005,0.052-0.011,0.077-0.018v-0.795c-0.975-1.234-3.624-4.593-3.853-4.906
		C42.871,14.243,42.678,14.305,42.451,14.356L42.451,14.356z"/>
	<path fill="#3E43E9" d="M11.156,4.922c1.077-0.05,1.175,0.196,1.648,0.898l11.889,19.875l14.947-3.58
		c-0.828-1.175-4.588-6.506-4.95-7.014c-0.409-0.572,0.01-0.839,0.675-0.951c0.662-0.112,6.382-1.072,6.873-1.144
		c0.49-0.071,0.878-0.245,1.674,0.715c0.409,0.492,1.79,2.213,3.088,3.825V8.25c0-2.271-0.807-4.216-2.421-5.829S41.022,0,38.75,0
		h-27.5C8.978,0,7.034,0.808,5.42,2.421c-0.925,0.926-1.584,1.96-1.979,3.103C6.136,5.302,10.402,4.956,11.156,4.922L11.156,4.922z"
		/>
	<path fill="#3E43E9" d="M31.923,38.427c-1.259,0.381-1.825,0.57-2.646-0.574c-0.614-0.859-3.939-6.851-5.57-9.802
		c-3.086,0.808-8.733,2.281-10.362,2.673c-1.59,0.382-2.268-0.57-2.529-1.159C10.632,29.153,5.972,19.105,3,12.659V35.75
		c0,2.274,0.807,4.215,2.42,5.829C7.034,43.193,8.978,44,11.25,44h27.5c2.272,0,4.215-0.807,5.829-2.421S47,38.024,47,35.75v-2.712
		C43.623,34.272,32.774,38.169,31.923,38.427L31.923,38.427z"/>
	<path fill="#3E43E9" d="M13.383,28.409c0.447-0.103,8.819-2.106,8.998-2.144c0.179-0.038,0.293-0.141,0.103-0.472
		C22.292,25.461,11.322,6.527,11.322,6.527c-0.101-0.174-0.072-0.231-0.347-0.217c-0.246,0.013-6.452,0.565-7.889,0.687
		c-0.043,0.299-0.068,0.604-0.08,0.916c1.459,2.986,9.832,20.253,9.878,20.394C12.937,28.46,12.937,28.513,13.383,28.409
		L13.383,28.409z"/>
</g>
</svg>
