<?xml version="1.0" encoding="utf-8"?>
<!-- Generator: Adobe Illustrator 16.0.0, SVG Export Plug-In . SVG Version: 6.00 Build 0)  -->
<!DOCTYPE svg PUBLIC "-//W3C//DTD SVG 1.1//EN" "http://www.w3.org/Graphics/SVG/1.1/DTD/svg11.dtd" [
	<!ENTITY ns_extend "http://ns.adobe.com/Extensibility/1.0/">
	<!ENTITY ns_ai "http://ns.adobe.com/AdobeIllustrator/10.0/">
	<!ENTITY ns_graphs "http://ns.adobe.com/Graphs/1.0/">
	<!ENTITY ns_vars "http://ns.adobe.com/Variables/1.0/">
	<!ENTITY ns_imrep "http://ns.adobe.com/ImageReplacement/1.0/">
	<!ENTITY ns_sfw "http://ns.adobe.com/SaveForWeb/1.0/">
	<!ENTITY ns_custom "http://ns.adobe.com/GenericCustomNamespace/1.0/">
	<!ENTITY ns_adobe_xpath "http://ns.adobe.com/XPath/1.0/">
]>
<svg version="1.1" id="Layer_1" xmlns:x="&ns_extend;" xmlns:i="&ns_ai;" xmlns:graph="&ns_graphs;"
	 xmlns="http://www.w3.org/2000/svg" xmlns:xlink="http://www.w3.org/1999/xlink" x="0px" y="0px" width="50px" height="44px"
	 viewBox="0 0 50 44" enable-background="new 0 0 50 44" xml:space="preserve">
<metadata>
	<sfw  xmlns="&ns_sfw;">
		<slices></slices>
		<sliceSourceBounds  y="-40.729" x="1.09" width="47.82" height="37.459" bottomLeftOrigin="true"></sliceSourceBounds>
	</sfw>
</metadata>
<g>
	<g>
		<path fill="#3E43E9" d="M46.439,21.601h-5.5V7.255c-0.002-2.2-1.785-3.982-3.984-3.985h-23.91
			c-2.199,0.002-3.982,1.785-3.984,3.985v4.782H4.688c-1.985,0.002-3.596,1.612-3.598,3.598v21.496
			c0.002,1.986,1.612,3.596,3.598,3.599h12.729c1.517-0.006,2.867-0.962,3.375-2.392h13.771c0.441,0,0.798-0.356,0.798-0.797v-1.593
			c0-1.321-1.07-2.393-2.391-2.393h-2.392v-3.188h6.376v7.891c0,1.363,1.106,2.471,2.471,2.471h7.014
			c1.365,0,2.471-1.107,2.471-2.471V24.072C48.91,22.708,47.805,21.601,46.439,21.601z M19.421,37.131
			c-0.001,1.107-0.897,2.003-2.004,2.004H4.688c-1.105-0.001-2.003-0.896-2.003-2.004v-0.387h16.736V37.131L19.421,37.131z
			 M19.421,35.149H2.685V17.617h16.736V35.149z M19.421,16.022H2.685v-0.387c0-1.106,0.897-2.003,2.004-2.004h12.729
			c1.106,0.001,2.003,0.898,2.004,2.004V16.022z M32.971,35.149c0.439,0,0.797,0.356,0.797,0.799v0.796H21.015v-1.595H32.971z
			 M21.015,33.556v-3.188h7.97v3.188H21.015z M36.955,28.774h-7.172h-8.769v-2.392h15.94V28.774z M36.955,24.072v0.717h-15.94
			v-9.154c-0.002-1.986-1.611-3.596-3.598-3.598h-6.764V7.256c0-1.321,1.071-2.391,2.392-2.391h23.91c1.32,0,2.391,1.07,2.391,2.391
			v14.354C38.017,21.652,36.96,22.741,36.955,24.072z M47.316,38.259c0,0.483-0.393,0.876-0.877,0.876h-7.014
			c-0.483,0-0.876-0.393-0.876-0.876v-0.718h8.767V38.259z M47.316,35.948H38.55v-9.565h8.767V35.948z M47.316,24.789H38.55v-0.717
			c0-0.484,0.393-0.877,0.876-0.877h7.014c0.484,0,0.877,0.393,0.877,0.877V24.789z"/>
	</g>
</g>
</svg>
